M48
; DRILL file {KiCad 6.0.8-f2edbf62ab~116~ubuntu22.04.1} date mar. 25 oct. 2022 14:13:16
; FORMAT={-:-/ absolute / inch / decimal}
; #@! TF.CreationDate,2022-10-25T14:13:16+02:00
; #@! TF.GenerationSoftware,Kicad,Pcbnew,6.0.8-f2edbf62ab~116~ubuntu22.04.1
; #@! TF.FileFunction,Plated,1,2,PTH
FMAT,2
INCH
; #@! TA.AperFunction,Plated,PTH,ViaDrill
T1C0.0157
; #@! TA.AperFunction,Plated,PTH,ComponentDrill
T2C0.0374
; #@! TA.AperFunction,Plated,PTH,ComponentDrill
T3C0.0394
; #@! TA.AperFunction,Plated,PTH,ComponentDrill
T4C0.0402
; #@! TA.AperFunction,Plated,PTH,ComponentDrill
T5C0.1260
; #@! TA.AperFunction,Plated,PTH,ComponentDrill
T6C0.1791
%
G90
G05
T1
X3.705Y-4.43
X3.745Y-4.605
X3.845Y-4.775
X3.955Y-4.845
X4.065Y-4.42
X4.07Y-4.0
X4.18Y-3.516
X4.184Y-4.192
X4.186Y-3.702
X4.2662Y-5.0988
X4.3262Y-5.135
X4.45Y-3.095
X4.4539Y-3.2
X4.4539Y-3.245
X4.4633Y-2.9299
X4.4878Y-2.9656
X4.62Y-2.72
X4.66Y-4.95
X4.675Y-2.7104
X4.72Y-2.885
X4.75Y-2.8063
X4.815Y-2.6846
X4.825Y-2.83
X4.825Y-2.995
X4.86Y-4.625
X4.875Y-5.155
X4.8764Y-4.565
X4.9Y-2.58
X4.9262Y-5.225
X4.9854Y-4.39
X4.995Y-4.48
X5.0Y-4.0
X5.015Y-4.115
X5.0263Y-4.8737
X5.056Y-4.072
X5.06Y-5.225
X5.065Y-4.615
X5.07Y-4.115
X5.0896Y-2.6253
X5.09Y-4.945
X5.115Y-3.685
X5.125Y-4.455
X5.22Y-4.55
X5.22Y-5.095
X5.24Y-2.975
X5.2675Y-2.6775
X5.2758Y-2.8692
X5.2994Y-2.5806
X5.3298Y-4.4844
X5.3372Y-2.7782
X5.3711Y-4.4715
X5.3986Y-4.625
X5.4087Y-3.055
X5.44Y-4.875
X5.497Y-4.455
X5.565Y-3.665
X5.565Y-3.705
X5.6645Y-4.8345
X5.6695Y-4.7795
X5.68Y-5.045
X5.685Y-3.535
X5.9Y-4.64
X5.93Y-4.61
X5.99Y-4.165
X6.0Y-4.105
X6.0121Y-4.9119
X6.08Y-4.44
X6.125Y-4.405
X6.14Y-4.785
X6.14Y-4.785
X6.175Y-4.393
X6.23Y-4.51
T2
X3.61Y-4.535
X3.6592Y-4.6202
X3.701Y-3.8198
X3.7084Y-4.7055
X3.7502Y-3.7345
X3.7576Y-4.7907
X3.7995Y-3.6493
X3.8069Y-4.876
X3.8487Y-3.564
X3.8561Y-4.9612
X3.8979Y-3.4788
X4.7539Y-2.5208
X4.8524Y-2.5208
X4.9508Y-2.5208
X5.0492Y-2.5208
X5.1476Y-2.5208
X5.2461Y-2.5208
X6.1624Y-4.9557
X6.2116Y-4.8705
X6.2608Y-4.7852
X6.31Y-4.7
X6.3592Y-4.6148
X6.4084Y-4.5295
T3
X4.2848Y-3.8244
X4.2848Y-3.9244
X4.2848Y-4.0244
X4.2848Y-4.1244
X4.3848Y-3.8244
X4.3848Y-3.9244
X4.3848Y-4.0244
X4.3848Y-4.1244
X4.65Y-4.2992
X4.75Y-4.2992
X4.85Y-4.2992
X4.95Y-4.2992
X5.05Y-4.2992
X5.15Y-4.2992
X5.25Y-4.2992
X5.35Y-4.2992
T4
X4.3616Y-4.7171
X4.3616Y-5.3171
X4.4616Y-4.7171
X4.4616Y-5.3171
X4.5616Y-4.7171
X4.5616Y-5.3171
X4.6616Y-4.7171
X4.6616Y-5.3171
X4.7616Y-4.7171
X4.7616Y-5.3171
X4.8616Y-4.7171
X4.8616Y-5.3171
X4.9616Y-4.7171
X4.9616Y-5.3171
X5.0616Y-4.7171
X5.0616Y-5.3171
X5.1616Y-4.7171
X5.1616Y-5.3171
X5.2616Y-4.7171
X5.2616Y-5.3171
X5.3616Y-4.7171
X5.3616Y-5.3171
X5.4616Y-4.7171
X5.4616Y-5.3171
X5.5616Y-4.7171
X5.5616Y-5.3171
X5.6616Y-4.7171
X5.6616Y-5.3171
X5.7616Y-4.7171
X5.7616Y-5.3171
T5
X4.3181Y-4.3937
X5.0Y-3.2126
X5.6819Y-4.3937
T6
X4.06Y-3.228
X4.2017Y-2.9825
T0
M30
